<svg id="Layer_1" data-name="Layer 1" xmlns="http://www.w3.org/2000/svg" viewBox="0 0 648.51 244"><defs><style>.cls-1{opacity:0.8;}.cls-2{fill:none;stroke:#4c7fa8;stroke-linecap:round;stroke-miterlimit:10;stroke-width:6px;}</style></defs><title>waveanimation</title><g class="cls-1"><path class="cls-2" d="M502.06,422.5c24.7,0,24.7,16,49.41,16s24.71-16,49.42-16,24.71,16,49.42,16,24.72-16,49.43-16,24.71,16,49.42,16,24.71-16,49.43-16,24.71,16,49.42,16,24.71-16,49.42-16,24.71,16,49.42,16,24.72-16,49.43-16,24.71,16,49.42,16,24.72-16,49.43-16,24.72,16,49.43,16" transform="translate(-499.06 -419.5)"/></g><g class="cls-1"><path class="cls-2" d="M502.06,459.5c24.7,0,24.7,16,49.41,16s24.71-16,49.42-16,24.71,16,49.42,16,24.72-16,49.43-16,24.71,16,49.42,16,24.71-16,49.43-16,24.71,16,49.42,16,24.71-16,49.42-16,24.71,16,49.42,16,24.72-16,49.43-16,24.71,16,49.42,16,24.72-16,49.43-16,24.72,16,49.43,16" transform="translate(-499.06 -419.5)"/></g><g class="cls-1"><path class="cls-2" d="M502.06,496.5c24.7,0,24.7,16,49.41,16s24.71-16,49.42-16,24.71,16,49.42,16,24.72-16,49.43-16,24.71,16,49.42,16,24.71-16,49.43-16,24.71,16,49.42,16,24.71-16,49.42-16,24.71,16,49.42,16,24.72-16,49.43-16,24.71,16,49.42,16,24.72-16,49.43-16,24.72,16,49.43,16" transform="translate(-499.06 -419.5)"/></g><g class="cls-1"><path class="cls-2" d="M502.06,533.5c24.7,0,24.7,16,49.41,16s24.71-16,49.42-16,24.71,16,49.42,16,24.72-16,49.43-16,24.71,16,49.42,16,24.71-16,49.43-16,24.71,16,49.42,16,24.71-16,49.42-16,24.71,16,49.42,16,24.72-16,49.43-16,24.71,16,49.42,16,24.72-16,49.43-16,24.72,16,49.43,16" transform="translate(-499.06 -419.5)"/></g><g class="cls-1"><path class="cls-2" d="M502.06,570.5c24.7,0,24.7,16,49.41,16s24.71-16,49.42-16,24.71,16,49.42,16,24.72-16,49.43-16,24.71,16,49.42,16,24.71-16,49.43-16,24.71,16,49.42,16,24.71-16,49.42-16,24.71,16,49.42,16,24.72-16,49.43-16,24.71,16,49.42,16,24.72-16,49.43-16,24.72,16,49.43,16" transform="translate(-499.06 -419.5)"/></g><g class="cls-1"><path class="cls-2" d="M502.06,607.5c24.7,0,24.7,16,49.41,16s24.71-16,49.42-16,24.71,16,49.42,16,24.72-16,49.43-16,24.71,16,49.42,16,24.71-16,49.43-16,24.71,16,49.42,16,24.71-16,49.42-16,24.71,16,49.42,16,24.72-16,49.43-16,24.71,16,49.42,16,24.72-16,49.43-16,24.72,16,49.43,16" transform="translate(-499.06 -419.5)"/></g><g class="cls-1"><path class="cls-2" d="M502.06,644.5c24.7,0,24.7,16,49.41,16s24.71-16,49.42-16,24.71,16,49.42,16,24.72-16,49.43-16,24.71,16,49.42,16,24.71-16,49.43-16,24.71,16,49.42,16,24.71-16,49.42-16,24.71,16,49.42,16,24.72-16,49.43-16,24.71,16,49.42,16,24.72-16,49.43-16,24.72,16,49.43,16" transform="translate(-499.06 -419.5)"/></g></svg>